<?xml version="1.0" encoding="utf-8" standalone="no"?>
<!DOCTYPE svg PUBLIC "-//W3C//DTD SVG 1.1//EN"
  "http://www.w3.org/Graphics/SVG/1.1/DTD/svg11.dtd">
<svg xmlns:xlink="http://www.w3.org/1999/xlink" width="569.351178pt" height="536.654024pt" viewBox="0 0 569.351178 536.654024" xmlns="http://www.w3.org/2000/svg" version="1.1">
 <metadata>
  <rdf:RDF xmlns:dc="http://purl.org/dc/elements/1.1/" xmlns:cc="http://creativecommons.org/ns#" xmlns:rdf="http://www.w3.org/1999/02/22-rdf-syntax-ns#">
   <cc:Work>
    <dc:type rdf:resource="http://purl.org/dc/dcmitype/StillImage"/>
    <dc:date>2026-04-21T14:59:10.840046</dc:date>
    <dc:format>image/svg+xml</dc:format>
    <dc:creator>
     <cc:Agent>
      <dc:title>Matplotlib v3.7.1, https://matplotlib.org/</dc:title>
     </cc:Agent>
    </dc:creator>
   </cc:Work>
  </rdf:RDF>
 </metadata>
 <defs>
  <style type="text/css">*{stroke-linejoin: round; stroke-linecap: butt}</style>
 </defs>
 <g id="figure_1">
  <g id="patch_1">
   <path d="M 0 536.654024 
L 569.351178 536.654024 
L 569.351178 0 
L 0 0 
z
" style="fill: #ffffff"/>
  </g>
  <g id="axes_1">
   <g id="patch_2">
    <path d="M 71.171875 529.454024 
L 562.151178 529.454024 
L 562.151178 7.2 
L 71.171875 7.2 
z
" style="fill: #ffffff"/>
   </g>
   <g id="matplotlib.axis_1">
    <g id="xtick_1"/>
    <g id="xtick_2"/>
    <g id="xtick_3"/>
    <g id="xtick_4"/>
    <g id="xtick_5"/>
    <g id="xtick_6"/>
    <g id="xtick_7"/>
    <g id="xtick_8"/>
    <g id="xtick_9"/>
    <g id="xtick_10"/>
    <g id="xtick_11"/>
   </g>
   <g id="matplotlib.axis_2">
    <g id="ytick_1">
     <g id="line2d_1">
      <defs>
       <path id="m6d0989ac8e" d="M 0 0 
L -3.5 0 
" style="stroke: #000000; stroke-width: 0.8"/>
      </defs>
      <g>
       <use xlink:href="#m6d0989ac8e" x="71.171875" y="425.297357" style="stroke: #000000; stroke-width: 0.8"/>
      </g>
     </g>
     <g id="text_1">
      <!-- $\mathdefault{10^{2}}$ -->
      <g transform="translate(32.491875 432.135951) scale(0.18 -0.18)">
       <defs>
        <path id="DejaVuSans-31" d="M 794 531 
L 1825 531 
L 1825 4091 
L 703 3866 
L 703 4441 
L 1819 4666 
L 2450 4666 
L 2450 531 
L 3481 531 
L 3481 0 
L 794 0 
L 794 531 
z
" transform="scale(0.015625)"/>
        <path id="DejaVuSans-30" d="M 2034 4250 
Q 1547 4250 1301 3770 
Q 1056 3291 1056 2328 
Q 1056 1369 1301 889 
Q 1547 409 2034 409 
Q 2525 409 2770 889 
Q 3016 1369 3016 2328 
Q 3016 3291 2770 3770 
Q 2525 4250 2034 4250 
z
M 2034 4750 
Q 2819 4750 3233 4129 
Q 3647 3509 3647 2328 
Q 3647 1150 3233 529 
Q 2819 -91 2034 -91 
Q 1250 -91 836 529 
Q 422 1150 422 2328 
Q 422 3509 836 4129 
Q 1250 4750 2034 4750 
z
" transform="scale(0.015625)"/>
        <path id="DejaVuSans-32" d="M 1228 531 
L 3431 531 
L 3431 0 
L 469 0 
L 469 531 
Q 828 903 1448 1529 
Q 2069 2156 2228 2338 
Q 2531 2678 2651 2914 
Q 2772 3150 2772 3378 
Q 2772 3750 2511 3984 
Q 2250 4219 1831 4219 
Q 1534 4219 1204 4116 
Q 875 4013 500 3803 
L 500 4441 
Q 881 4594 1212 4672 
Q 1544 4750 1819 4750 
Q 2544 4750 2975 4387 
Q 3406 4025 3406 3419 
Q 3406 3131 3298 2873 
Q 3191 2616 2906 2266 
Q 2828 2175 2409 1742 
Q 1991 1309 1228 531 
z
" transform="scale(0.015625)"/>
       </defs>
       <use xlink:href="#DejaVuSans-31" transform="translate(0 0.765625)"/>
       <use xlink:href="#DejaVuSans-30" transform="translate(63.623047 0.765625)"/>
       <use xlink:href="#DejaVuSans-32" transform="translate(128.203125 39.046875) scale(0.7)"/>
      </g>
     </g>
    </g>
    <g id="ytick_2">
     <g id="line2d_2">
      <g>
       <use xlink:href="#m6d0989ac8e" x="71.171875" y="186.840083" style="stroke: #000000; stroke-width: 0.8"/>
      </g>
     </g>
     <g id="text_2">
      <!-- $\mathdefault{10^{3}}$ -->
      <g transform="translate(32.491875 193.678677) scale(0.18 -0.18)">
       <defs>
        <path id="DejaVuSans-33" d="M 2597 2516 
Q 3050 2419 3304 2112 
Q 3559 1806 3559 1356 
Q 3559 666 3084 287 
Q 2609 -91 1734 -91 
Q 1441 -91 1130 -33 
Q 819 25 488 141 
L 488 750 
Q 750 597 1062 519 
Q 1375 441 1716 441 
Q 2309 441 2620 675 
Q 2931 909 2931 1356 
Q 2931 1769 2642 2001 
Q 2353 2234 1838 2234 
L 1294 2234 
L 1294 2753 
L 1863 2753 
Q 2328 2753 2575 2939 
Q 2822 3125 2822 3475 
Q 2822 3834 2567 4026 
Q 2313 4219 1838 4219 
Q 1578 4219 1281 4162 
Q 984 4106 628 3988 
L 628 4550 
Q 988 4650 1302 4700 
Q 1616 4750 1894 4750 
Q 2613 4750 3031 4423 
Q 3450 4097 3450 3541 
Q 3450 3153 3228 2886 
Q 3006 2619 2597 2516 
z
" transform="scale(0.015625)"/>
       </defs>
       <use xlink:href="#DejaVuSans-31" transform="translate(0 0.765625)"/>
       <use xlink:href="#DejaVuSans-30" transform="translate(63.623047 0.765625)"/>
       <use xlink:href="#DejaVuSans-33" transform="translate(128.203125 39.046875) scale(0.7)"/>
      </g>
     </g>
    </g>
    <g id="ytick_3">
     <g id="line2d_3">
      <defs>
       <path id="mb79ca12b4c" d="M 0 0 
L -2 0 
" style="stroke: #000000; stroke-width: 0.6"/>
      </defs>
      <g>
       <use xlink:href="#mb79ca12b4c" x="71.171875" y="520.189046" style="stroke: #000000; stroke-width: 0.6"/>
      </g>
     </g>
    </g>
    <g id="ytick_4">
     <g id="line2d_4">
      <g>
       <use xlink:href="#mb79ca12b4c" x="71.171875" y="497.080149" style="stroke: #000000; stroke-width: 0.6"/>
      </g>
     </g>
    </g>
    <g id="ytick_5">
     <g id="line2d_5">
      <g>
       <use xlink:href="#mb79ca12b4c" x="71.171875" y="478.198805" style="stroke: #000000; stroke-width: 0.6"/>
      </g>
     </g>
    </g>
    <g id="ytick_6">
     <g id="line2d_6">
      <g>
       <use xlink:href="#mb79ca12b4c" x="71.171875" y="462.234856" style="stroke: #000000; stroke-width: 0.6"/>
      </g>
     </g>
    </g>
    <g id="ytick_7">
     <g id="line2d_7">
      <g>
       <use xlink:href="#mb79ca12b4c" x="71.171875" y="448.406254" style="stroke: #000000; stroke-width: 0.6"/>
      </g>
     </g>
    </g>
    <g id="ytick_8">
     <g id="line2d_8">
      <g>
       <use xlink:href="#mb79ca12b4c" x="71.171875" y="436.208563" style="stroke: #000000; stroke-width: 0.6"/>
      </g>
     </g>
    </g>
    <g id="ytick_9">
     <g id="line2d_9">
      <g>
       <use xlink:href="#mb79ca12b4c" x="71.171875" y="353.514565" style="stroke: #000000; stroke-width: 0.6"/>
      </g>
     </g>
    </g>
    <g id="ytick_10">
     <g id="line2d_10">
      <g>
       <use xlink:href="#mb79ca12b4c" x="71.171875" y="311.524323" style="stroke: #000000; stroke-width: 0.6"/>
      </g>
     </g>
    </g>
    <g id="ytick_11">
     <g id="line2d_11">
      <g>
       <use xlink:href="#mb79ca12b4c" x="71.171875" y="281.731773" style="stroke: #000000; stroke-width: 0.6"/>
      </g>
     </g>
    </g>
    <g id="ytick_12">
     <g id="line2d_12">
      <g>
       <use xlink:href="#mb79ca12b4c" x="71.171875" y="258.622875" style="stroke: #000000; stroke-width: 0.6"/>
      </g>
     </g>
    </g>
    <g id="ytick_13">
     <g id="line2d_13">
      <g>
       <use xlink:href="#mb79ca12b4c" x="71.171875" y="239.741531" style="stroke: #000000; stroke-width: 0.6"/>
      </g>
     </g>
    </g>
    <g id="ytick_14">
     <g id="line2d_14">
      <g>
       <use xlink:href="#mb79ca12b4c" x="71.171875" y="223.777582" style="stroke: #000000; stroke-width: 0.6"/>
      </g>
     </g>
    </g>
    <g id="ytick_15">
     <g id="line2d_15">
      <g>
       <use xlink:href="#mb79ca12b4c" x="71.171875" y="209.948981" style="stroke: #000000; stroke-width: 0.6"/>
      </g>
     </g>
    </g>
    <g id="ytick_16">
     <g id="line2d_16">
      <g>
       <use xlink:href="#mb79ca12b4c" x="71.171875" y="197.75129" style="stroke: #000000; stroke-width: 0.6"/>
      </g>
     </g>
    </g>
    <g id="ytick_17">
     <g id="line2d_17">
      <g>
       <use xlink:href="#mb79ca12b4c" x="71.171875" y="115.057291" style="stroke: #000000; stroke-width: 0.6"/>
      </g>
     </g>
    </g>
    <g id="ytick_18">
     <g id="line2d_18">
      <g>
       <use xlink:href="#mb79ca12b4c" x="71.171875" y="73.06705" style="stroke: #000000; stroke-width: 0.6"/>
      </g>
     </g>
    </g>
    <g id="ytick_19">
     <g id="line2d_19">
      <g>
       <use xlink:href="#mb79ca12b4c" x="71.171875" y="43.274499" style="stroke: #000000; stroke-width: 0.6"/>
      </g>
     </g>
    </g>
    <g id="ytick_20">
     <g id="line2d_20">
      <g>
       <use xlink:href="#mb79ca12b4c" x="71.171875" y="20.165602" style="stroke: #000000; stroke-width: 0.6"/>
      </g>
     </g>
    </g>
    <g id="text_3">
     <!-- Number of Publications -->
     <g transform="translate(23.916563 396.207168) rotate(-90) scale(0.22 -0.22)">
      <defs>
       <path id="DejaVuSans-4e" d="M 628 4666 
L 1478 4666 
L 3547 763 
L 3547 4666 
L 4159 4666 
L 4159 0 
L 3309 0 
L 1241 3903 
L 1241 0 
L 628 0 
L 628 4666 
z
" transform="scale(0.015625)"/>
       <path id="DejaVuSans-75" d="M 544 1381 
L 544 3500 
L 1119 3500 
L 1119 1403 
Q 1119 906 1312 657 
Q 1506 409 1894 409 
Q 2359 409 2629 706 
Q 2900 1003 2900 1516 
L 2900 3500 
L 3475 3500 
L 3475 0 
L 2900 0 
L 2900 538 
Q 2691 219 2414 64 
Q 2138 -91 1772 -91 
Q 1169 -91 856 284 
Q 544 659 544 1381 
z
M 1991 3584 
L 1991 3584 
z
" transform="scale(0.015625)"/>
       <path id="DejaVuSans-6d" d="M 3328 2828 
Q 3544 3216 3844 3400 
Q 4144 3584 4550 3584 
Q 5097 3584 5394 3201 
Q 5691 2819 5691 2113 
L 5691 0 
L 5113 0 
L 5113 2094 
Q 5113 2597 4934 2840 
Q 4756 3084 4391 3084 
Q 3944 3084 3684 2787 
Q 3425 2491 3425 1978 
L 3425 0 
L 2847 0 
L 2847 2094 
Q 2847 2600 2669 2842 
Q 2491 3084 2119 3084 
Q 1678 3084 1418 2786 
Q 1159 2488 1159 1978 
L 1159 0 
L 581 0 
L 581 3500 
L 1159 3500 
L 1159 2956 
Q 1356 3278 1631 3431 
Q 1906 3584 2284 3584 
Q 2666 3584 2933 3390 
Q 3200 3197 3328 2828 
z
" transform="scale(0.015625)"/>
       <path id="DejaVuSans-62" d="M 3116 1747 
Q 3116 2381 2855 2742 
Q 2594 3103 2138 3103 
Q 1681 3103 1420 2742 
Q 1159 2381 1159 1747 
Q 1159 1113 1420 752 
Q 1681 391 2138 391 
Q 2594 391 2855 752 
Q 3116 1113 3116 1747 
z
M 1159 2969 
Q 1341 3281 1617 3432 
Q 1894 3584 2278 3584 
Q 2916 3584 3314 3078 
Q 3713 2572 3713 1747 
Q 3713 922 3314 415 
Q 2916 -91 2278 -91 
Q 1894 -91 1617 61 
Q 1341 213 1159 525 
L 1159 0 
L 581 0 
L 581 4863 
L 1159 4863 
L 1159 2969 
z
" transform="scale(0.015625)"/>
       <path id="DejaVuSans-65" d="M 3597 1894 
L 3597 1613 
L 953 1613 
Q 991 1019 1311 708 
Q 1631 397 2203 397 
Q 2534 397 2845 478 
Q 3156 559 3463 722 
L 3463 178 
Q 3153 47 2828 -22 
Q 2503 -91 2169 -91 
Q 1331 -91 842 396 
Q 353 884 353 1716 
Q 353 2575 817 3079 
Q 1281 3584 2069 3584 
Q 2775 3584 3186 3129 
Q 3597 2675 3597 1894 
z
M 3022 2063 
Q 3016 2534 2758 2815 
Q 2500 3097 2075 3097 
Q 1594 3097 1305 2825 
Q 1016 2553 972 2059 
L 3022 2063 
z
" transform="scale(0.015625)"/>
       <path id="DejaVuSans-72" d="M 2631 2963 
Q 2534 3019 2420 3045 
Q 2306 3072 2169 3072 
Q 1681 3072 1420 2755 
Q 1159 2438 1159 1844 
L 1159 0 
L 581 0 
L 581 3500 
L 1159 3500 
L 1159 2956 
Q 1341 3275 1631 3429 
Q 1922 3584 2338 3584 
Q 2397 3584 2469 3576 
Q 2541 3569 2628 3553 
L 2631 2963 
z
" transform="scale(0.015625)"/>
       <path id="DejaVuSans-20" transform="scale(0.015625)"/>
       <path id="DejaVuSans-6f" d="M 1959 3097 
Q 1497 3097 1228 2736 
Q 959 2375 959 1747 
Q 959 1119 1226 758 
Q 1494 397 1959 397 
Q 2419 397 2687 759 
Q 2956 1122 2956 1747 
Q 2956 2369 2687 2733 
Q 2419 3097 1959 3097 
z
M 1959 3584 
Q 2709 3584 3137 3096 
Q 3566 2609 3566 1747 
Q 3566 888 3137 398 
Q 2709 -91 1959 -91 
Q 1206 -91 779 398 
Q 353 888 353 1747 
Q 353 2609 779 3096 
Q 1206 3584 1959 3584 
z
" transform="scale(0.015625)"/>
       <path id="DejaVuSans-66" d="M 2375 4863 
L 2375 4384 
L 1825 4384 
Q 1516 4384 1395 4259 
Q 1275 4134 1275 3809 
L 1275 3500 
L 2222 3500 
L 2222 3053 
L 1275 3053 
L 1275 0 
L 697 0 
L 697 3053 
L 147 3053 
L 147 3500 
L 697 3500 
L 697 3744 
Q 697 4328 969 4595 
Q 1241 4863 1831 4863 
L 2375 4863 
z
" transform="scale(0.015625)"/>
       <path id="DejaVuSans-50" d="M 1259 4147 
L 1259 2394 
L 2053 2394 
Q 2494 2394 2734 2622 
Q 2975 2850 2975 3272 
Q 2975 3691 2734 3919 
Q 2494 4147 2053 4147 
L 1259 4147 
z
M 628 4666 
L 2053 4666 
Q 2838 4666 3239 4311 
Q 3641 3956 3641 3272 
Q 3641 2581 3239 2228 
Q 2838 1875 2053 1875 
L 1259 1875 
L 1259 0 
L 628 0 
L 628 4666 
z
" transform="scale(0.015625)"/>
       <path id="DejaVuSans-6c" d="M 603 4863 
L 1178 4863 
L 1178 0 
L 603 0 
L 603 4863 
z
" transform="scale(0.015625)"/>
       <path id="DejaVuSans-69" d="M 603 3500 
L 1178 3500 
L 1178 0 
L 603 0 
L 603 3500 
z
M 603 4863 
L 1178 4863 
L 1178 4134 
L 603 4134 
L 603 4863 
z
" transform="scale(0.015625)"/>
       <path id="DejaVuSans-63" d="M 3122 3366 
L 3122 2828 
Q 2878 2963 2633 3030 
Q 2388 3097 2138 3097 
Q 1578 3097 1268 2742 
Q 959 2388 959 1747 
Q 959 1106 1268 751 
Q 1578 397 2138 397 
Q 2388 397 2633 464 
Q 2878 531 3122 666 
L 3122 134 
Q 2881 22 2623 -34 
Q 2366 -91 2075 -91 
Q 1284 -91 818 406 
Q 353 903 353 1747 
Q 353 2603 823 3093 
Q 1294 3584 2113 3584 
Q 2378 3584 2631 3529 
Q 2884 3475 3122 3366 
z
" transform="scale(0.015625)"/>
       <path id="DejaVuSans-61" d="M 2194 1759 
Q 1497 1759 1228 1600 
Q 959 1441 959 1056 
Q 959 750 1161 570 
Q 1363 391 1709 391 
Q 2188 391 2477 730 
Q 2766 1069 2766 1631 
L 2766 1759 
L 2194 1759 
z
M 3341 1997 
L 3341 0 
L 2766 0 
L 2766 531 
Q 2569 213 2275 61 
Q 1981 -91 1556 -91 
Q 1019 -91 701 211 
Q 384 513 384 1019 
Q 384 1609 779 1909 
Q 1175 2209 1959 2209 
L 2766 2209 
L 2766 2266 
Q 2766 2663 2505 2880 
Q 2244 3097 1772 3097 
Q 1472 3097 1187 3025 
Q 903 2953 641 2809 
L 641 3341 
Q 956 3463 1253 3523 
Q 1550 3584 1831 3584 
Q 2591 3584 2966 3190 
Q 3341 2797 3341 1997 
z
" transform="scale(0.015625)"/>
       <path id="DejaVuSans-74" d="M 1172 4494 
L 1172 3500 
L 2356 3500 
L 2356 3053 
L 1172 3053 
L 1172 1153 
Q 1172 725 1289 603 
Q 1406 481 1766 481 
L 2356 481 
L 2356 0 
L 1766 0 
Q 1100 0 847 248 
Q 594 497 594 1153 
L 594 3053 
L 172 3053 
L 172 3500 
L 594 3500 
L 594 4494 
L 1172 4494 
z
" transform="scale(0.015625)"/>
       <path id="DejaVuSans-6e" d="M 3513 2113 
L 3513 0 
L 2938 0 
L 2938 2094 
Q 2938 2591 2744 2837 
Q 2550 3084 2163 3084 
Q 1697 3084 1428 2787 
Q 1159 2491 1159 1978 
L 1159 0 
L 581 0 
L 581 3500 
L 1159 3500 
L 1159 2956 
Q 1366 3272 1645 3428 
Q 1925 3584 2291 3584 
Q 2894 3584 3203 3211 
Q 3513 2838 3513 2113 
z
" transform="scale(0.015625)"/>
       <path id="DejaVuSans-73" d="M 2834 3397 
L 2834 2853 
Q 2591 2978 2328 3040 
Q 2066 3103 1784 3103 
Q 1356 3103 1142 2972 
Q 928 2841 928 2578 
Q 928 2378 1081 2264 
Q 1234 2150 1697 2047 
L 1894 2003 
Q 2506 1872 2764 1633 
Q 3022 1394 3022 966 
Q 3022 478 2636 193 
Q 2250 -91 1575 -91 
Q 1294 -91 989 -36 
Q 684 19 347 128 
L 347 722 
Q 666 556 975 473 
Q 1284 391 1588 391 
Q 1994 391 2212 530 
Q 2431 669 2431 922 
Q 2431 1156 2273 1281 
Q 2116 1406 1581 1522 
L 1381 1569 
Q 847 1681 609 1914 
Q 372 2147 372 2553 
Q 372 3047 722 3315 
Q 1072 3584 1716 3584 
Q 2034 3584 2315 3537 
Q 2597 3491 2834 3397 
z
" transform="scale(0.015625)"/>
      </defs>
      <use xlink:href="#DejaVuSans-4e"/>
      <use xlink:href="#DejaVuSans-75" x="74.804688"/>
      <use xlink:href="#DejaVuSans-6d" x="138.183594"/>
      <use xlink:href="#DejaVuSans-62" x="235.595703"/>
      <use xlink:href="#DejaVuSans-65" x="299.072266"/>
      <use xlink:href="#DejaVuSans-72" x="360.595703"/>
      <use xlink:href="#DejaVuSans-20" x="401.708984"/>
      <use xlink:href="#DejaVuSans-6f" x="433.496094"/>
      <use xlink:href="#DejaVuSans-66" x="494.677734"/>
      <use xlink:href="#DejaVuSans-20" x="529.882812"/>
      <use xlink:href="#DejaVuSans-50" x="561.669922"/>
      <use xlink:href="#DejaVuSans-75" x="620.222656"/>
      <use xlink:href="#DejaVuSans-62" x="683.601562"/>
      <use xlink:href="#DejaVuSans-6c" x="747.078125"/>
      <use xlink:href="#DejaVuSans-69" x="774.861328"/>
      <use xlink:href="#DejaVuSans-63" x="802.644531"/>
      <use xlink:href="#DejaVuSans-61" x="857.625"/>
      <use xlink:href="#DejaVuSans-74" x="918.904297"/>
      <use xlink:href="#DejaVuSans-69" x="958.113281"/>
      <use xlink:href="#DejaVuSans-6f" x="985.896484"/>
      <use xlink:href="#DejaVuSans-6e" x="1047.078125"/>
      <use xlink:href="#DejaVuSans-73" x="1110.457031"/>
     </g>
    </g>
   </g>
   <g id="patch_3">
    <path d="M 93.489116 239359.485422 
L 126.551695 239359.485422 
L 126.551695 30.938819 
L 93.489116 30.938819 
z
" clip-path="url(#pd2036e857a)" style="fill: #696969; opacity: 0.9; stroke: #000000; stroke-width: 0.3; stroke-linejoin: miter"/>
   </g>
   <g id="patch_4">
    <path d="M 134.81734 239359.485422 
L 167.87992 239359.485422 
L 167.87992 157.462606 
L 134.81734 157.462606 
z
" clip-path="url(#pd2036e857a)" style="fill: #ffa500; opacity: 0.9; stroke: #000000; stroke-width: 0.3; stroke-linejoin: miter"/>
   </g>
   <g id="patch_5">
    <path d="M 176.145564 239359.485422 
L 209.208144 239359.485422 
L 209.208144 166.928276 
L 176.145564 166.928276 
z
" clip-path="url(#pd2036e857a)" style="fill: #ff0000; opacity: 0.9; stroke: #000000; stroke-width: 0.3; stroke-linejoin: miter"/>
   </g>
   <g id="patch_6">
    <path d="M 217.473789 239359.485422 
L 250.536368 239359.485422 
L 250.536368 176.500033 
L 217.473789 176.500033 
z
" clip-path="url(#pd2036e857a)" style="fill: #008000; opacity: 0.9; stroke: #000000; stroke-width: 0.3; stroke-linejoin: miter"/>
   </g>
   <g id="patch_7">
    <path d="M 258.802013 239359.485422 
L 291.864592 239359.485422 
L 291.864592 199.726147 
L 258.802013 199.726147 
z
" clip-path="url(#pd2036e857a)" style="fill: #4169e1; opacity: 0.9; stroke: #000000; stroke-width: 0.3; stroke-linejoin: miter"/>
   </g>
   <g id="patch_8">
    <path d="M 300.130237 239359.485422 
L 333.192816 239359.485422 
L 333.192816 260.082969 
L 300.130237 260.082969 
z
" clip-path="url(#pd2036e857a)" style="fill: #00bfbf; opacity: 0.9; stroke: #000000; stroke-width: 0.3; stroke-linejoin: miter"/>
   </g>
   <g id="patch_9">
    <path d="M 341.458461 239359.485422 
L 374.52104 239359.485422 
L 374.52104 308.128587 
L 341.458461 308.128587 
z
" clip-path="url(#pd2036e857a)" style="fill: #9400d3; opacity: 0.9; stroke: #000000; stroke-width: 0.3; stroke-linejoin: miter"/>
   </g>
   <g id="patch_10">
    <path d="M 382.786685 239359.485422 
L 415.849265 239359.485422 
L 415.849265 335.935888 
L 382.786685 335.935888 
z
" clip-path="url(#pd2036e857a)" style="fill: #a52a2a; opacity: 0.9; stroke: #000000; stroke-width: 0.3; stroke-linejoin: miter"/>
   </g>
   <g id="patch_11">
    <path d="M 424.114909 239359.485422 
L 457.177489 239359.485422 
L 457.177489 339.491969 
L 424.114909 339.491969 
z
" clip-path="url(#pd2036e857a)" style="fill: #0000ff; opacity: 0.9; stroke: #000000; stroke-width: 0.3; stroke-linejoin: miter"/>
   </g>
   <g id="patch_12">
    <path d="M 465.443134 239359.485422 
L 498.505713 239359.485422 
L 498.505713 357.204139 
L 465.443134 357.204139 
z
" clip-path="url(#pd2036e857a)" style="opacity: 0.9; stroke: #000000; stroke-width: 0.3; stroke-linejoin: miter"/>
   </g>
   <g id="patch_13">
    <path d="M 506.771358 239359.485422 
L 539.833937 239359.485422 
L 539.833937 505.715205 
L 506.771358 505.715205 
z
" clip-path="url(#pd2036e857a)" style="fill: #ff1493; opacity: 0.9; stroke: #000000; stroke-width: 0.3; stroke-linejoin: miter"/>
   </g>
   <g id="patch_14">
    <path d="M 71.171875 529.454024 
L 71.171875 7.2 
" style="fill: none; stroke: #000000; stroke-width: 0.8; stroke-linejoin: miter; stroke-linecap: square"/>
   </g>
   <g id="patch_15">
    <path d="M 562.151178 529.454024 
L 562.151178 7.2 
" style="fill: none; stroke: #000000; stroke-width: 0.8; stroke-linejoin: miter; stroke-linecap: square"/>
   </g>
   <g id="patch_16">
    <path d="M 71.171875 529.454024 
L 562.151178 529.454024 
" style="fill: none; stroke: #000000; stroke-width: 0.8; stroke-linejoin: miter; stroke-linecap: square"/>
   </g>
   <g id="patch_17">
    <path d="M 71.171875 7.2 
L 562.151178 7.2 
" style="fill: none; stroke: #000000; stroke-width: 0.8; stroke-linejoin: miter; stroke-linecap: square"/>
   </g>
   <g id="text_4">
    <g id="patch_18">
     <path d="M 122.698531 380.543028 
L 122.698531 116.971153 
Q 122.698531 113.971153 119.698531 113.971153 
L 100.342281 113.971153 
Q 97.342281 113.971153 97.342281 116.971153 
L 97.342281 380.543028 
Q 97.342281 383.543028 100.342281 383.543028 
L 119.698531 383.543028 
Q 122.698531 383.543028 122.698531 380.543028 
z
" style="fill: #ffffff; opacity: 0.45"/>
    </g>
    <!-- General RC / ESN Methods -->
    <g transform="translate(115.539156 380.543028) rotate(-90) scale(0.2 -0.2)">
     <defs>
      <path id="DejaVuSans-47" d="M 3809 666 
L 3809 1919 
L 2778 1919 
L 2778 2438 
L 4434 2438 
L 4434 434 
Q 4069 175 3628 42 
Q 3188 -91 2688 -91 
Q 1594 -91 976 548 
Q 359 1188 359 2328 
Q 359 3472 976 4111 
Q 1594 4750 2688 4750 
Q 3144 4750 3555 4637 
Q 3966 4525 4313 4306 
L 4313 3634 
Q 3963 3931 3569 4081 
Q 3175 4231 2741 4231 
Q 1884 4231 1454 3753 
Q 1025 3275 1025 2328 
Q 1025 1384 1454 906 
Q 1884 428 2741 428 
Q 3075 428 3337 486 
Q 3600 544 3809 666 
z
" transform="scale(0.015625)"/>
      <path id="DejaVuSans-52" d="M 2841 2188 
Q 3044 2119 3236 1894 
Q 3428 1669 3622 1275 
L 4263 0 
L 3584 0 
L 2988 1197 
Q 2756 1666 2539 1819 
Q 2322 1972 1947 1972 
L 1259 1972 
L 1259 0 
L 628 0 
L 628 4666 
L 2053 4666 
Q 2853 4666 3247 4331 
Q 3641 3997 3641 3322 
Q 3641 2881 3436 2590 
Q 3231 2300 2841 2188 
z
M 1259 4147 
L 1259 2491 
L 2053 2491 
Q 2509 2491 2742 2702 
Q 2975 2913 2975 3322 
Q 2975 3731 2742 3939 
Q 2509 4147 2053 4147 
L 1259 4147 
z
" transform="scale(0.015625)"/>
      <path id="DejaVuSans-43" d="M 4122 4306 
L 4122 3641 
Q 3803 3938 3442 4084 
Q 3081 4231 2675 4231 
Q 1875 4231 1450 3742 
Q 1025 3253 1025 2328 
Q 1025 1406 1450 917 
Q 1875 428 2675 428 
Q 3081 428 3442 575 
Q 3803 722 4122 1019 
L 4122 359 
Q 3791 134 3420 21 
Q 3050 -91 2638 -91 
Q 1578 -91 968 557 
Q 359 1206 359 2328 
Q 359 3453 968 4101 
Q 1578 4750 2638 4750 
Q 3056 4750 3426 4639 
Q 3797 4528 4122 4306 
z
" transform="scale(0.015625)"/>
      <path id="DejaVuSans-2f" d="M 1625 4666 
L 2156 4666 
L 531 -594 
L 0 -594 
L 1625 4666 
z
" transform="scale(0.015625)"/>
      <path id="DejaVuSans-45" d="M 628 4666 
L 3578 4666 
L 3578 4134 
L 1259 4134 
L 1259 2753 
L 3481 2753 
L 3481 2222 
L 1259 2222 
L 1259 531 
L 3634 531 
L 3634 0 
L 628 0 
L 628 4666 
z
" transform="scale(0.015625)"/>
      <path id="DejaVuSans-53" d="M 3425 4513 
L 3425 3897 
Q 3066 4069 2747 4153 
Q 2428 4238 2131 4238 
Q 1616 4238 1336 4038 
Q 1056 3838 1056 3469 
Q 1056 3159 1242 3001 
Q 1428 2844 1947 2747 
L 2328 2669 
Q 3034 2534 3370 2195 
Q 3706 1856 3706 1288 
Q 3706 609 3251 259 
Q 2797 -91 1919 -91 
Q 1588 -91 1214 -16 
Q 841 59 441 206 
L 441 856 
Q 825 641 1194 531 
Q 1563 422 1919 422 
Q 2459 422 2753 634 
Q 3047 847 3047 1241 
Q 3047 1584 2836 1778 
Q 2625 1972 2144 2069 
L 1759 2144 
Q 1053 2284 737 2584 
Q 422 2884 422 3419 
Q 422 4038 858 4394 
Q 1294 4750 2059 4750 
Q 2388 4750 2728 4690 
Q 3069 4631 3425 4513 
z
" transform="scale(0.015625)"/>
      <path id="DejaVuSans-4d" d="M 628 4666 
L 1569 4666 
L 2759 1491 
L 3956 4666 
L 4897 4666 
L 4897 0 
L 4281 0 
L 4281 4097 
L 3078 897 
L 2444 897 
L 1241 4097 
L 1241 0 
L 628 0 
L 628 4666 
z
" transform="scale(0.015625)"/>
      <path id="DejaVuSans-68" d="M 3513 2113 
L 3513 0 
L 2938 0 
L 2938 2094 
Q 2938 2591 2744 2837 
Q 2550 3084 2163 3084 
Q 1697 3084 1428 2787 
Q 1159 2491 1159 1978 
L 1159 0 
L 581 0 
L 581 4863 
L 1159 4863 
L 1159 2956 
Q 1366 3272 1645 3428 
Q 1925 3584 2291 3584 
Q 2894 3584 3203 3211 
Q 3513 2838 3513 2113 
z
" transform="scale(0.015625)"/>
      <path id="DejaVuSans-64" d="M 2906 2969 
L 2906 4863 
L 3481 4863 
L 3481 0 
L 2906 0 
L 2906 525 
Q 2725 213 2448 61 
Q 2172 -91 1784 -91 
Q 1150 -91 751 415 
Q 353 922 353 1747 
Q 353 2572 751 3078 
Q 1150 3584 1784 3584 
Q 2172 3584 2448 3432 
Q 2725 3281 2906 2969 
z
M 947 1747 
Q 947 1113 1208 752 
Q 1469 391 1925 391 
Q 2381 391 2643 752 
Q 2906 1113 2906 1747 
Q 2906 2381 2643 2742 
Q 2381 3103 1925 3103 
Q 1469 3103 1208 2742 
Q 947 2381 947 1747 
z
" transform="scale(0.015625)"/>
     </defs>
     <use xlink:href="#DejaVuSans-47"/>
     <use xlink:href="#DejaVuSans-65" x="77.490234"/>
     <use xlink:href="#DejaVuSans-6e" x="139.013672"/>
     <use xlink:href="#DejaVuSans-65" x="202.392578"/>
     <use xlink:href="#DejaVuSans-72" x="263.916016"/>
     <use xlink:href="#DejaVuSans-61" x="305.029297"/>
     <use xlink:href="#DejaVuSans-6c" x="366.308594"/>
     <use xlink:href="#DejaVuSans-20" x="394.091797"/>
     <use xlink:href="#DejaVuSans-52" x="425.878906"/>
     <use xlink:href="#DejaVuSans-43" x="490.361328"/>
     <use xlink:href="#DejaVuSans-20" x="560.185547"/>
     <use xlink:href="#DejaVuSans-2f" x="591.972656"/>
     <use xlink:href="#DejaVuSans-20" x="625.664062"/>
     <use xlink:href="#DejaVuSans-45" x="657.451172"/>
     <use xlink:href="#DejaVuSans-53" x="720.634766"/>
     <use xlink:href="#DejaVuSans-4e" x="784.111328"/>
     <use xlink:href="#DejaVuSans-20" x="858.916016"/>
     <use xlink:href="#DejaVuSans-4d" x="890.703125"/>
     <use xlink:href="#DejaVuSans-65" x="976.982422"/>
     <use xlink:href="#DejaVuSans-74" x="1038.505859"/>
     <use xlink:href="#DejaVuSans-68" x="1077.714844"/>
     <use xlink:href="#DejaVuSans-6f" x="1141.09375"/>
     <use xlink:href="#DejaVuSans-64" x="1202.275391"/>
     <use xlink:href="#DejaVuSans-73" x="1265.751953"/>
    </g>
   </g>
   <g id="text_5">
    <!-- 4506 -->
    <g transform="translate(90.932906 25.768515) scale(0.15 -0.15)">
     <defs>
      <path id="DejaVuSans-34" d="M 2419 4116 
L 825 1625 
L 2419 1625 
L 2419 4116 
z
M 2253 4666 
L 3047 4666 
L 3047 1625 
L 3713 1625 
L 3713 1100 
L 3047 1100 
L 3047 0 
L 2419 0 
L 2419 1100 
L 313 1100 
L 313 1709 
L 2253 4666 
z
" transform="scale(0.015625)"/>
      <path id="DejaVuSans-35" d="M 691 4666 
L 3169 4666 
L 3169 4134 
L 1269 4134 
L 1269 2991 
Q 1406 3038 1543 3061 
Q 1681 3084 1819 3084 
Q 2600 3084 3056 2656 
Q 3513 2228 3513 1497 
Q 3513 744 3044 326 
Q 2575 -91 1722 -91 
Q 1428 -91 1123 -41 
Q 819 9 494 109 
L 494 744 
Q 775 591 1075 516 
Q 1375 441 1709 441 
Q 2250 441 2565 725 
Q 2881 1009 2881 1497 
Q 2881 1984 2565 2268 
Q 2250 2553 1709 2553 
Q 1456 2553 1204 2497 
Q 953 2441 691 2322 
L 691 4666 
z
" transform="scale(0.015625)"/>
      <path id="DejaVuSans-36" d="M 2113 2584 
Q 1688 2584 1439 2293 
Q 1191 2003 1191 1497 
Q 1191 994 1439 701 
Q 1688 409 2113 409 
Q 2538 409 2786 701 
Q 3034 994 3034 1497 
Q 3034 2003 2786 2293 
Q 2538 2584 2113 2584 
z
M 3366 4563 
L 3366 3988 
Q 3128 4100 2886 4159 
Q 2644 4219 2406 4219 
Q 1781 4219 1451 3797 
Q 1122 3375 1075 2522 
Q 1259 2794 1537 2939 
Q 1816 3084 2150 3084 
Q 2853 3084 3261 2657 
Q 3669 2231 3669 1497 
Q 3669 778 3244 343 
Q 2819 -91 2113 -91 
Q 1303 -91 875 529 
Q 447 1150 447 2328 
Q 447 3434 972 4092 
Q 1497 4750 2381 4750 
Q 2619 4750 2861 4703 
Q 3103 4656 3366 4563 
z
" transform="scale(0.015625)"/>
     </defs>
     <use xlink:href="#DejaVuSans-34"/>
     <use xlink:href="#DejaVuSans-35" x="63.623047"/>
     <use xlink:href="#DejaVuSans-30" x="127.246094"/>
     <use xlink:href="#DejaVuSans-36" x="190.869141"/>
    </g>
   </g>
   <g id="text_6">
    <g id="patch_19">
     <path d="M 164.026755 489.293681 
L 164.026755 198.006181 
Q 164.026755 195.006181 161.026755 195.006181 
L 141.670505 195.006181 
Q 138.670505 195.006181 138.670505 198.006181 
L 138.670505 489.293681 
Q 138.670505 492.293681 141.670505 492.293681 
L 161.026755 492.293681 
Q 164.026755 492.293681 164.026755 489.293681 
z
" style="fill: #ffffff; opacity: 0.45"/>
    </g>
    <!-- Nonlinear Dynamics &amp; Chaos -->
    <g transform="translate(156.86738 489.293681) rotate(-90) scale(0.2 -0.2)">
     <defs>
      <path id="DejaVuSans-44" d="M 1259 4147 
L 1259 519 
L 2022 519 
Q 2988 519 3436 956 
Q 3884 1394 3884 2338 
Q 3884 3275 3436 3711 
Q 2988 4147 2022 4147 
L 1259 4147 
z
M 628 4666 
L 1925 4666 
Q 3281 4666 3915 4102 
Q 4550 3538 4550 2338 
Q 4550 1131 3912 565 
Q 3275 0 1925 0 
L 628 0 
L 628 4666 
z
" transform="scale(0.015625)"/>
      <path id="DejaVuSans-79" d="M 2059 -325 
Q 1816 -950 1584 -1140 
Q 1353 -1331 966 -1331 
L 506 -1331 
L 506 -850 
L 844 -850 
Q 1081 -850 1212 -737 
Q 1344 -625 1503 -206 
L 1606 56 
L 191 3500 
L 800 3500 
L 1894 763 
L 2988 3500 
L 3597 3500 
L 2059 -325 
z
" transform="scale(0.015625)"/>
      <path id="DejaVuSans-26" d="M 1556 2509 
Q 1272 2256 1139 2004 
Q 1006 1753 1006 1478 
Q 1006 1022 1337 719 
Q 1669 416 2169 416 
Q 2466 416 2725 514 
Q 2984 613 3213 813 
L 1556 2509 
z
M 1997 2859 
L 3584 1234 
Q 3769 1513 3872 1830 
Q 3975 2147 3994 2503 
L 4575 2503 
Q 4538 2091 4375 1687 
Q 4213 1284 3922 891 
L 4794 0 
L 4006 0 
L 3559 459 
Q 3234 181 2878 45 
Q 2522 -91 2113 -91 
Q 1359 -91 881 339 
Q 403 769 403 1441 
Q 403 1841 612 2192 
Q 822 2544 1241 2853 
Q 1091 3050 1012 3245 
Q 934 3441 934 3628 
Q 934 4134 1281 4442 
Q 1628 4750 2203 4750 
Q 2463 4750 2720 4694 
Q 2978 4638 3244 4525 
L 3244 3956 
Q 2972 4103 2725 4179 
Q 2478 4256 2266 4256 
Q 1938 4256 1733 4082 
Q 1528 3909 1528 3634 
Q 1528 3475 1620 3314 
Q 1713 3153 1997 2859 
z
" transform="scale(0.015625)"/>
     </defs>
     <use xlink:href="#DejaVuSans-4e"/>
     <use xlink:href="#DejaVuSans-6f" x="74.804688"/>
     <use xlink:href="#DejaVuSans-6e" x="135.986328"/>
     <use xlink:href="#DejaVuSans-6c" x="199.365234"/>
     <use xlink:href="#DejaVuSans-69" x="227.148438"/>
     <use xlink:href="#DejaVuSans-6e" x="254.931641"/>
     <use xlink:href="#DejaVuSans-65" x="318.310547"/>
     <use xlink:href="#DejaVuSans-61" x="379.833984"/>
     <use xlink:href="#DejaVuSans-72" x="441.113281"/>
     <use xlink:href="#DejaVuSans-20" x="482.226562"/>
     <use xlink:href="#DejaVuSans-44" x="514.013672"/>
     <use xlink:href="#DejaVuSans-79" x="591.015625"/>
     <use xlink:href="#DejaVuSans-6e" x="650.195312"/>
     <use xlink:href="#DejaVuSans-61" x="713.574219"/>
     <use xlink:href="#DejaVuSans-6d" x="774.853516"/>
     <use xlink:href="#DejaVuSans-69" x="872.265625"/>
     <use xlink:href="#DejaVuSans-63" x="900.048828"/>
     <use xlink:href="#DejaVuSans-73" x="955.029297"/>
     <use xlink:href="#DejaVuSans-20" x="1007.128906"/>
     <use xlink:href="#DejaVuSans-26" x="1038.916016"/>
     <use xlink:href="#DejaVuSans-20" x="1116.894531"/>
     <use xlink:href="#DejaVuSans-43" x="1148.681641"/>
     <use xlink:href="#DejaVuSans-68" x="1218.505859"/>
     <use xlink:href="#DejaVuSans-61" x="1281.884766"/>
     <use xlink:href="#DejaVuSans-6f" x="1343.164062"/>
     <use xlink:href="#DejaVuSans-73" x="1404.345703"/>
    </g>
   </g>
   <g id="text_7">
    <!-- 1328 -->
    <g transform="translate(132.26113 152.292301) scale(0.15 -0.15)">
     <defs>
      <path id="DejaVuSans-38" d="M 2034 2216 
Q 1584 2216 1326 1975 
Q 1069 1734 1069 1313 
Q 1069 891 1326 650 
Q 1584 409 2034 409 
Q 2484 409 2743 651 
Q 3003 894 3003 1313 
Q 3003 1734 2745 1975 
Q 2488 2216 2034 2216 
z
M 1403 2484 
Q 997 2584 770 2862 
Q 544 3141 544 3541 
Q 544 4100 942 4425 
Q 1341 4750 2034 4750 
Q 2731 4750 3128 4425 
Q 3525 4100 3525 3541 
Q 3525 3141 3298 2862 
Q 3072 2584 2669 2484 
Q 3125 2378 3379 2068 
Q 3634 1759 3634 1313 
Q 3634 634 3220 271 
Q 2806 -91 2034 -91 
Q 1263 -91 848 271 
Q 434 634 434 1313 
Q 434 1759 690 2068 
Q 947 2378 1403 2484 
z
M 1172 3481 
Q 1172 3119 1398 2916 
Q 1625 2713 2034 2713 
Q 2441 2713 2670 2916 
Q 2900 3119 2900 3481 
Q 2900 3844 2670 4047 
Q 2441 4250 2034 4250 
Q 1625 4250 1398 4047 
Q 1172 3844 1172 3481 
z
" transform="scale(0.015625)"/>
     </defs>
     <use xlink:href="#DejaVuSans-31"/>
     <use xlink:href="#DejaVuSans-33" x="63.623047"/>
     <use xlink:href="#DejaVuSans-32" x="127.246094"/>
     <use xlink:href="#DejaVuSans-38" x="190.869141"/>
    </g>
   </g>
   <g id="text_8">
    <g id="patch_20">
     <path d="M 205.354979 444.878871 
L 205.354979 256.619496 
Q 205.354979 253.619496 202.354979 253.619496 
L 182.998729 253.619496 
Q 179.998729 253.619496 179.998729 256.619496 
L 179.998729 444.878871 
Q 179.998729 447.878871 182.998729 447.878871 
L 202.354979 447.878871 
Q 205.354979 447.878871 205.354979 444.878871 
z
" style="fill: #ffffff; opacity: 0.45"/>
    </g>
    <!-- Photonics &amp; Optics -->
    <g transform="translate(198.195604 444.878871) rotate(-90) scale(0.2 -0.2)">
     <defs>
      <path id="DejaVuSans-4f" d="M 2522 4238 
Q 1834 4238 1429 3725 
Q 1025 3213 1025 2328 
Q 1025 1447 1429 934 
Q 1834 422 2522 422 
Q 3209 422 3611 934 
Q 4013 1447 4013 2328 
Q 4013 3213 3611 3725 
Q 3209 4238 2522 4238 
z
M 2522 4750 
Q 3503 4750 4090 4092 
Q 4678 3434 4678 2328 
Q 4678 1225 4090 567 
Q 3503 -91 2522 -91 
Q 1538 -91 948 565 
Q 359 1222 359 2328 
Q 359 3434 948 4092 
Q 1538 4750 2522 4750 
z
" transform="scale(0.015625)"/>
      <path id="DejaVuSans-70" d="M 1159 525 
L 1159 -1331 
L 581 -1331 
L 581 3500 
L 1159 3500 
L 1159 2969 
Q 1341 3281 1617 3432 
Q 1894 3584 2278 3584 
Q 2916 3584 3314 3078 
Q 3713 2572 3713 1747 
Q 3713 922 3314 415 
Q 2916 -91 2278 -91 
Q 1894 -91 1617 61 
Q 1341 213 1159 525 
z
M 3116 1747 
Q 3116 2381 2855 2742 
Q 2594 3103 2138 3103 
Q 1681 3103 1420 2742 
Q 1159 2381 1159 1747 
Q 1159 1113 1420 752 
Q 1681 391 2138 391 
Q 2594 391 2855 752 
Q 3116 1113 3116 1747 
z
" transform="scale(0.015625)"/>
     </defs>
     <use xlink:href="#DejaVuSans-50"/>
     <use xlink:href="#DejaVuSans-68" x="60.302734"/>
     <use xlink:href="#DejaVuSans-6f" x="123.681641"/>
     <use xlink:href="#DejaVuSans-74" x="184.863281"/>
     <use xlink:href="#DejaVuSans-6f" x="224.072266"/>
     <use xlink:href="#DejaVuSans-6e" x="285.253906"/>
     <use xlink:href="#DejaVuSans-69" x="348.632812"/>
     <use xlink:href="#DejaVuSans-63" x="376.416016"/>
     <use xlink:href="#DejaVuSans-73" x="431.396484"/>
     <use xlink:href="#DejaVuSans-20" x="483.496094"/>
     <use xlink:href="#DejaVuSans-26" x="515.283203"/>
     <use xlink:href="#DejaVuSans-20" x="593.261719"/>
     <use xlink:href="#DejaVuSans-4f" x="625.048828"/>
     <use xlink:href="#DejaVuSans-70" x="703.759766"/>
     <use xlink:href="#DejaVuSans-74" x="767.236328"/>
     <use xlink:href="#DejaVuSans-69" x="806.445312"/>
     <use xlink:href="#DejaVuSans-63" x="834.228516"/>
     <use xlink:href="#DejaVuSans-73" x="889.208984"/>
    </g>
   </g>
   <g id="text_9">
    <!-- 1212 -->
    <g transform="translate(173.589354 161.757971) scale(0.15 -0.15)">
     <use xlink:href="#DejaVuSans-31"/>
     <use xlink:href="#DejaVuSans-32" x="63.623047"/>
     <use xlink:href="#DejaVuSans-31" x="127.246094"/>
     <use xlink:href="#DejaVuSans-32" x="190.869141"/>
    </g>
   </g>
   <g id="text_10">
    <g id="patch_21">
     <path d="M 246.683203 477.648313 
L 246.683203 238.207688 
Q 246.683203 235.207688 243.683203 235.207688 
L 224.326953 235.207688 
Q 221.326953 235.207688 221.326953 238.207688 
L 221.326953 477.648313 
Q 221.326953 480.648313 224.326953 480.648313 
L 243.683203 480.648313 
Q 246.683203 480.648313 246.683203 477.648313 
z
" style="fill: #ffffff; opacity: 0.45"/>
    </g>
    <!-- Physical &amp; Hardware RC -->
    <g transform="translate(239.523828 477.648313) rotate(-90) scale(0.2 -0.2)">
     <defs>
      <path id="DejaVuSans-48" d="M 628 4666 
L 1259 4666 
L 1259 2753 
L 3553 2753 
L 3553 4666 
L 4184 4666 
L 4184 0 
L 3553 0 
L 3553 2222 
L 1259 2222 
L 1259 0 
L 628 0 
L 628 4666 
z
" transform="scale(0.015625)"/>
      <path id="DejaVuSans-77" d="M 269 3500 
L 844 3500 
L 1563 769 
L 2278 3500 
L 2956 3500 
L 3675 769 
L 4391 3500 
L 4966 3500 
L 4050 0 
L 3372 0 
L 2619 2869 
L 1863 0 
L 1184 0 
L 269 3500 
z
" transform="scale(0.015625)"/>
     </defs>
     <use xlink:href="#DejaVuSans-50"/>
     <use xlink:href="#DejaVuSans-68" x="60.302734"/>
     <use xlink:href="#DejaVuSans-79" x="123.681641"/>
     <use xlink:href="#DejaVuSans-73" x="182.861328"/>
     <use xlink:href="#DejaVuSans-69" x="234.960938"/>
     <use xlink:href="#DejaVuSans-63" x="262.744141"/>
     <use xlink:href="#DejaVuSans-61" x="317.724609"/>
     <use xlink:href="#DejaVuSans-6c" x="379.003906"/>
     <use xlink:href="#DejaVuSans-20" x="406.787109"/>
     <use xlink:href="#DejaVuSans-26" x="438.574219"/>
     <use xlink:href="#DejaVuSans-20" x="516.552734"/>
     <use xlink:href="#DejaVuSans-48" x="548.339844"/>
     <use xlink:href="#DejaVuSans-61" x="623.535156"/>
     <use xlink:href="#DejaVuSans-72" x="684.814453"/>
     <use xlink:href="#DejaVuSans-64" x="724.177734"/>
     <use xlink:href="#DejaVuSans-77" x="787.654297"/>
     <use xlink:href="#DejaVuSans-61" x="869.441406"/>
     <use xlink:href="#DejaVuSans-72" x="930.720703"/>
     <use xlink:href="#DejaVuSans-65" x="969.583984"/>
     <use xlink:href="#DejaVuSans-20" x="1031.107422"/>
     <use xlink:href="#DejaVuSans-52" x="1062.894531"/>
     <use xlink:href="#DejaVuSans-43" x="1127.376953"/>
    </g>
   </g>
   <g id="text_11">
    <!-- 1105 -->
    <g transform="translate(214.917578 171.329728) scale(0.15 -0.15)">
     <use xlink:href="#DejaVuSans-31"/>
     <use xlink:href="#DejaVuSans-31" x="63.623047"/>
     <use xlink:href="#DejaVuSans-30" x="127.246094"/>
     <use xlink:href="#DejaVuSans-35" x="190.869141"/>
    </g>
   </g>
   <g id="text_12">
    <g id="patch_22">
     <path d="M 288.011427 522.630398 
L 288.011427 228.064773 
Q 288.011427 225.064773 285.011427 225.064773 
L 265.655177 225.064773 
Q 262.655177 225.064773 262.655177 228.064773 
L 262.655177 522.630398 
Q 262.655177 525.630398 265.655177 525.630398 
L 285.011427 525.630398 
Q 288.011427 525.630398 288.011427 522.630398 
z
" style="fill: #ffffff; opacity: 0.45"/>
    </g>
    <!-- Neuroscience &amp; Comp. Neuro -->
    <g transform="translate(280.852052 522.630398) rotate(-90) scale(0.2 -0.2)">
     <defs>
      <path id="DejaVuSans-2e" d="M 684 794 
L 1344 794 
L 1344 0 
L 684 0 
L 684 794 
z
" transform="scale(0.015625)"/>
     </defs>
     <use xlink:href="#DejaVuSans-4e"/>
     <use xlink:href="#DejaVuSans-65" x="74.804688"/>
     <use xlink:href="#DejaVuSans-75" x="136.328125"/>
     <use xlink:href="#DejaVuSans-72" x="199.707031"/>
     <use xlink:href="#DejaVuSans-6f" x="238.570312"/>
     <use xlink:href="#DejaVuSans-73" x="299.751953"/>
     <use xlink:href="#DejaVuSans-63" x="351.851562"/>
     <use xlink:href="#DejaVuSans-69" x="406.832031"/>
     <use xlink:href="#DejaVuSans-65" x="434.615234"/>
     <use xlink:href="#DejaVuSans-6e" x="496.138672"/>
     <use xlink:href="#DejaVuSans-63" x="559.517578"/>
     <use xlink:href="#DejaVuSans-65" x="614.498047"/>
     <use xlink:href="#DejaVuSans-20" x="676.021484"/>
     <use xlink:href="#DejaVuSans-26" x="707.808594"/>
     <use xlink:href="#DejaVuSans-20" x="785.787109"/>
     <use xlink:href="#DejaVuSans-43" x="817.574219"/>
     <use xlink:href="#DejaVuSans-6f" x="887.398438"/>
     <use xlink:href="#DejaVuSans-6d" x="948.580078"/>
     <use xlink:href="#DejaVuSans-70" x="1045.992188"/>
     <use xlink:href="#DejaVuSans-2e" x="1109.46875"/>
     <use xlink:href="#DejaVuSans-20" x="1141.255859"/>
     <use xlink:href="#DejaVuSans-4e" x="1173.042969"/>
     <use xlink:href="#DejaVuSans-65" x="1247.847656"/>
     <use xlink:href="#DejaVuSans-75" x="1309.371094"/>
     <use xlink:href="#DejaVuSans-72" x="1372.75"/>
     <use xlink:href="#DejaVuSans-6f" x="1411.613281"/>
    </g>
   </g>
   <g id="text_13">
    <!-- 883 -->
    <g transform="translate(261.017677 194.555842) scale(0.15 -0.15)">
     <use xlink:href="#DejaVuSans-38"/>
     <use xlink:href="#DejaVuSans-38" x="63.623047"/>
     <use xlink:href="#DejaVuSans-33" x="127.246094"/>
    </g>
   </g>
   <g id="text_14">
    <g id="patch_23">
     <path d="M 329.339652 513.402703 
L 329.339652 327.827703 
Q 329.339652 324.827703 326.339652 324.827703 
L 306.983402 324.827703 
Q 303.983402 324.827703 303.983402 327.827703 
L 303.983402 513.402703 
Q 303.983402 516.402703 306.983402 516.402703 
L 326.339652 516.402703 
Q 329.339652 516.402703 329.339652 513.402703 
z
" style="fill: #ffffff; opacity: 0.45"/>
    </g>
    <!-- Control &amp; Robotics -->
    <g transform="translate(322.180277 513.402703) rotate(-90) scale(0.2 -0.2)">
     <use xlink:href="#DejaVuSans-43"/>
     <use xlink:href="#DejaVuSans-6f" x="69.824219"/>
     <use xlink:href="#DejaVuSans-6e" x="131.005859"/>
     <use xlink:href="#DejaVuSans-74" x="194.384766"/>
     <use xlink:href="#DejaVuSans-72" x="233.59375"/>
     <use xlink:href="#DejaVuSans-6f" x="272.457031"/>
     <use xlink:href="#DejaVuSans-6c" x="333.638672"/>
     <use xlink:href="#DejaVuSans-20" x="361.421875"/>
     <use xlink:href="#DejaVuSans-26" x="393.208984"/>
     <use xlink:href="#DejaVuSans-20" x="471.1875"/>
     <use xlink:href="#DejaVuSans-52" x="502.974609"/>
     <use xlink:href="#DejaVuSans-6f" x="567.957031"/>
     <use xlink:href="#DejaVuSans-62" x="629.138672"/>
     <use xlink:href="#DejaVuSans-6f" x="692.615234"/>
     <use xlink:href="#DejaVuSans-74" x="753.796875"/>
     <use xlink:href="#DejaVuSans-69" x="793.005859"/>
     <use xlink:href="#DejaVuSans-63" x="820.789062"/>
     <use xlink:href="#DejaVuSans-73" x="875.769531"/>
    </g>
   </g>
   <g id="text_15">
    <!-- 493 -->
    <g transform="translate(302.345902 254.912665) scale(0.15 -0.15)">
     <defs>
      <path id="DejaVuSans-39" d="M 703 97 
L 703 672 
Q 941 559 1184 500 
Q 1428 441 1663 441 
Q 2288 441 2617 861 
Q 2947 1281 2994 2138 
Q 2813 1869 2534 1725 
Q 2256 1581 1919 1581 
Q 1219 1581 811 2004 
Q 403 2428 403 3163 
Q 403 3881 828 4315 
Q 1253 4750 1959 4750 
Q 2769 4750 3195 4129 
Q 3622 3509 3622 2328 
Q 3622 1225 3098 567 
Q 2575 -91 1691 -91 
Q 1453 -91 1209 -44 
Q 966 3 703 97 
z
M 1959 2075 
Q 2384 2075 2632 2365 
Q 2881 2656 2881 3163 
Q 2881 3666 2632 3958 
Q 2384 4250 1959 4250 
Q 1534 4250 1286 3958 
Q 1038 3666 1038 3163 
Q 1038 2656 1286 2365 
Q 1534 2075 1959 2075 
z
" transform="scale(0.015625)"/>
     </defs>
     <use xlink:href="#DejaVuSans-34"/>
     <use xlink:href="#DejaVuSans-39" x="63.623047"/>
     <use xlink:href="#DejaVuSans-33" x="127.246094"/>
    </g>
   </g>
   <g id="text_16">
    <g id="patch_24">
     <path d="M 381.865688 259.454692 
L 381.865688 62.920317 
Q 381.865688 59.920317 378.865688 59.920317 
L 337.113813 59.920317 
Q 334.113813 59.920317 334.113813 62.920317 
L 334.113813 259.454692 
Q 334.113813 262.454692 337.113813 262.454692 
L 378.865688 262.454692 
Q 381.865688 262.454692 381.865688 259.454692 
z
" style="fill: #ffffff; opacity: 0.25"/>
    </g>
    <!-- Signal Processing &amp; -->
    <g style="fill: #9400d3" transform="translate(352.310688 259.454692) rotate(-90) scale(0.2 -0.2)">
     <defs>
      <path id="DejaVuSans-67" d="M 2906 1791 
Q 2906 2416 2648 2759 
Q 2391 3103 1925 3103 
Q 1463 3103 1205 2759 
Q 947 2416 947 1791 
Q 947 1169 1205 825 
Q 1463 481 1925 481 
Q 2391 481 2648 825 
Q 2906 1169 2906 1791 
z
M 3481 434 
Q 3481 -459 3084 -895 
Q 2688 -1331 1869 -1331 
Q 1566 -1331 1297 -1286 
Q 1028 -1241 775 -1147 
L 775 -588 
Q 1028 -725 1275 -790 
Q 1522 -856 1778 -856 
Q 2344 -856 2625 -561 
Q 2906 -266 2906 331 
L 2906 616 
Q 2728 306 2450 153 
Q 2172 0 1784 0 
Q 1141 0 747 490 
Q 353 981 353 1791 
Q 353 2603 747 3093 
Q 1141 3584 1784 3584 
Q 2172 3584 2450 3431 
Q 2728 3278 2906 2969 
L 2906 3500 
L 3481 3500 
L 3481 434 
z
" transform="scale(0.015625)"/>
     </defs>
     <use xlink:href="#DejaVuSans-53"/>
     <use xlink:href="#DejaVuSans-69" x="63.476562"/>
     <use xlink:href="#DejaVuSans-67" x="91.259766"/>
     <use xlink:href="#DejaVuSans-6e" x="154.736328"/>
     <use xlink:href="#DejaVuSans-61" x="218.115234"/>
     <use xlink:href="#DejaVuSans-6c" x="279.394531"/>
     <use xlink:href="#DejaVuSans-20" x="307.177734"/>
     <use xlink:href="#DejaVuSans-50" x="338.964844"/>
     <use xlink:href="#DejaVuSans-72" x="397.517578"/>
     <use xlink:href="#DejaVuSans-6f" x="436.380859"/>
     <use xlink:href="#DejaVuSans-63" x="497.5625"/>
     <use xlink:href="#DejaVuSans-65" x="552.542969"/>
     <use xlink:href="#DejaVuSans-73" x="614.066406"/>
     <use xlink:href="#DejaVuSans-73" x="666.166016"/>
     <use xlink:href="#DejaVuSans-69" x="718.265625"/>
     <use xlink:href="#DejaVuSans-6e" x="746.048828"/>
     <use xlink:href="#DejaVuSans-67" x="809.427734"/>
     <use xlink:href="#DejaVuSans-20" x="872.904297"/>
     <use xlink:href="#DejaVuSans-26" x="904.691406"/>
    </g>
    <!-- Comms -->
    <g style="fill: #9400d3" transform="translate(374.706313 198.979692) rotate(-90) scale(0.2 -0.2)">
     <use xlink:href="#DejaVuSans-43"/>
     <use xlink:href="#DejaVuSans-6f" x="69.824219"/>
     <use xlink:href="#DejaVuSans-6d" x="131.005859"/>
     <use xlink:href="#DejaVuSans-6d" x="228.417969"/>
     <use xlink:href="#DejaVuSans-73" x="325.830078"/>
    </g>
   </g>
   <g id="text_17">
    <!-- 310 -->
    <g transform="translate(343.674126 302.958282) scale(0.15 -0.15)">
     <use xlink:href="#DejaVuSans-33"/>
     <use xlink:href="#DejaVuSans-31" x="63.623047"/>
     <use xlink:href="#DejaVuSans-30" x="127.246094"/>
    </g>
   </g>
   <g id="text_18">
    <g id="patch_25">
     <path d="M 411.9961 287.261993 
L 411.9961 34.049493 
Q 411.9961 31.049493 408.9961 31.049493 
L 389.63985 31.049493 
Q 386.63985 31.049493 386.63985 34.049493 
L 386.63985 287.261993 
Q 386.63985 290.261993 389.63985 290.261993 
L 408.9961 290.261993 
Q 411.9961 290.261993 411.9961 287.261993 
z
" style="fill: #ffffff; opacity: 0.25"/>
    </g>
    <!-- Climate &amp; Earth Sciences -->
    <g style="fill: #a52a2a" transform="translate(404.836725 287.261993) rotate(-90) scale(0.2 -0.2)">
     <use xlink:href="#DejaVuSans-43"/>
     <use xlink:href="#DejaVuSans-6c" x="69.824219"/>
     <use xlink:href="#DejaVuSans-69" x="97.607422"/>
     <use xlink:href="#DejaVuSans-6d" x="125.390625"/>
     <use xlink:href="#DejaVuSans-61" x="222.802734"/>
     <use xlink:href="#DejaVuSans-74" x="284.082031"/>
     <use xlink:href="#DejaVuSans-65" x="323.291016"/>
     <use xlink:href="#DejaVuSans-20" x="384.814453"/>
     <use xlink:href="#DejaVuSans-26" x="416.601562"/>
     <use xlink:href="#DejaVuSans-20" x="494.580078"/>
     <use xlink:href="#DejaVuSans-45" x="526.367188"/>
     <use xlink:href="#DejaVuSans-61" x="589.550781"/>
     <use xlink:href="#DejaVuSans-72" x="650.830078"/>
     <use xlink:href="#DejaVuSans-74" x="691.943359"/>
     <use xlink:href="#DejaVuSans-68" x="731.152344"/>
     <use xlink:href="#DejaVuSans-20" x="794.53125"/>
     <use xlink:href="#DejaVuSans-53" x="826.318359"/>
     <use xlink:href="#DejaVuSans-63" x="889.794922"/>
     <use xlink:href="#DejaVuSans-69" x="944.775391"/>
     <use xlink:href="#DejaVuSans-65" x="972.558594"/>
     <use xlink:href="#DejaVuSans-6e" x="1034.082031"/>
     <use xlink:href="#DejaVuSans-63" x="1097.460938"/>
     <use xlink:href="#DejaVuSans-65" x="1152.441406"/>
     <use xlink:href="#DejaVuSans-73" x="1213.964844"/>
    </g>
   </g>
   <g id="text_19">
    <!-- 237 -->
    <g transform="translate(385.00235 330.765583) scale(0.15 -0.15)">
     <defs>
      <path id="DejaVuSans-37" d="M 525 4666 
L 3525 4666 
L 3525 4397 
L 1831 0 
L 1172 0 
L 2766 4134 
L 525 4134 
L 525 4666 
z
" transform="scale(0.015625)"/>
     </defs>
     <use xlink:href="#DejaVuSans-32"/>
     <use xlink:href="#DejaVuSans-33" x="63.623047"/>
     <use xlink:href="#DejaVuSans-37" x="127.246094"/>
    </g>
   </g>
   <g id="text_20">
    <g id="patch_26">
     <path d="M 453.324324 497.666471 
L 453.324324 371.100846 
Q 453.324324 368.100846 450.324324 368.100846 
L 430.968074 368.100846 
Q 427.968074 368.100846 427.968074 371.100846 
L 427.968074 497.666471 
Q 427.968074 500.666471 430.968074 500.666471 
L 450.324324 500.666471 
Q 453.324324 500.666471 453.324324 497.666471 
z
" style="fill: #ffffff; opacity: 0.45"/>
    </g>
    <!-- Quantum RC -->
    <g transform="translate(446.164949 497.666471) rotate(-90) scale(0.2 -0.2)">
     <defs>
      <path id="DejaVuSans-51" d="M 2522 4238 
Q 1834 4238 1429 3725 
Q 1025 3213 1025 2328 
Q 1025 1447 1429 934 
Q 1834 422 2522 422 
Q 3209 422 3611 934 
Q 4013 1447 4013 2328 
Q 4013 3213 3611 3725 
Q 3209 4238 2522 4238 
z
M 3406 84 
L 4238 -825 
L 3475 -825 
L 2784 -78 
Q 2681 -84 2626 -87 
Q 2572 -91 2522 -91 
Q 1538 -91 948 567 
Q 359 1225 359 2328 
Q 359 3434 948 4092 
Q 1538 4750 2522 4750 
Q 3503 4750 4090 4092 
Q 4678 3434 4678 2328 
Q 4678 1516 4351 937 
Q 4025 359 3406 84 
z
" transform="scale(0.015625)"/>
     </defs>
     <use xlink:href="#DejaVuSans-51"/>
     <use xlink:href="#DejaVuSans-75" x="78.710938"/>
     <use xlink:href="#DejaVuSans-61" x="142.089844"/>
     <use xlink:href="#DejaVuSans-6e" x="203.369141"/>
     <use xlink:href="#DejaVuSans-74" x="266.748047"/>
     <use xlink:href="#DejaVuSans-75" x="305.957031"/>
     <use xlink:href="#DejaVuSans-6d" x="369.335938"/>
     <use xlink:href="#DejaVuSans-20" x="466.748047"/>
     <use xlink:href="#DejaVuSans-52" x="498.535156"/>
     <use xlink:href="#DejaVuSans-43" x="563.017578"/>
    </g>
   </g>
   <g id="text_21">
    <!-- 229 -->
    <g transform="translate(426.330574 334.321664) scale(0.15 -0.15)">
     <use xlink:href="#DejaVuSans-32"/>
     <use xlink:href="#DejaVuSans-32" x="63.623047"/>
     <use xlink:href="#DejaVuSans-39" x="127.246094"/>
    </g>
   </g>
   <g id="text_22">
    <g id="patch_27">
     <path d="M 494.652548 308.530245 
L 494.652548 81.842745 
Q 494.652548 78.842745 491.652548 78.842745 
L 472.296298 78.842745 
Q 469.296298 78.842745 469.296298 81.842745 
L 469.296298 308.530245 
Q 469.296298 311.530245 472.296298 311.530245 
L 491.652548 311.530245 
Q 494.652548 311.530245 494.652548 308.530245 
z
" style="fill: #ffffff; opacity: 0.25"/>
    </g>
    <!-- Mathematics &amp; Theory -->
    <g transform="translate(487.493173 308.530245) rotate(-90) scale(0.2 -0.2)">
     <defs>
      <path id="DejaVuSans-54" d="M -19 4666 
L 3928 4666 
L 3928 4134 
L 2272 4134 
L 2272 0 
L 1638 0 
L 1638 4134 
L -19 4134 
L -19 4666 
z
" transform="scale(0.015625)"/>
     </defs>
     <use xlink:href="#DejaVuSans-4d"/>
     <use xlink:href="#DejaVuSans-61" x="86.279297"/>
     <use xlink:href="#DejaVuSans-74" x="147.558594"/>
     <use xlink:href="#DejaVuSans-68" x="186.767578"/>
     <use xlink:href="#DejaVuSans-65" x="250.146484"/>
     <use xlink:href="#DejaVuSans-6d" x="311.669922"/>
     <use xlink:href="#DejaVuSans-61" x="409.082031"/>
     <use xlink:href="#DejaVuSans-74" x="470.361328"/>
     <use xlink:href="#DejaVuSans-69" x="509.570312"/>
     <use xlink:href="#DejaVuSans-63" x="537.353516"/>
     <use xlink:href="#DejaVuSans-73" x="592.333984"/>
     <use xlink:href="#DejaVuSans-20" x="644.433594"/>
     <use xlink:href="#DejaVuSans-26" x="676.220703"/>
     <use xlink:href="#DejaVuSans-20" x="754.199219"/>
     <use xlink:href="#DejaVuSans-54" x="785.986328"/>
     <use xlink:href="#DejaVuSans-68" x="847.070312"/>
     <use xlink:href="#DejaVuSans-65" x="910.449219"/>
     <use xlink:href="#DejaVuSans-6f" x="971.972656"/>
     <use xlink:href="#DejaVuSans-72" x="1033.154297"/>
     <use xlink:href="#DejaVuSans-79" x="1074.267578"/>
    </g>
   </g>
   <g id="text_23">
    <!-- 193 -->
    <g transform="translate(467.658798 352.033835) scale(0.15 -0.15)">
     <use xlink:href="#DejaVuSans-31"/>
     <use xlink:href="#DejaVuSans-39" x="63.623047"/>
     <use xlink:href="#DejaVuSans-33" x="127.246094"/>
    </g>
   </g>
   <g id="text_24">
    <g id="patch_28">
     <path d="M 535.980772 457.04131 
L 535.980772 328.806935 
Q 535.980772 325.806935 532.980772 325.806935 
L 513.624522 325.806935 
Q 510.624522 325.806935 510.624522 328.806935 
L 510.624522 457.04131 
Q 510.624522 460.04131 513.624522 460.04131 
L 532.980772 460.04131 
Q 535.980772 460.04131 535.980772 457.04131 
z
" style="fill: #ffffff; opacity: 0.25"/>
    </g>
    <!-- Next-Gen RC -->
    <g style="fill: #ff1493" transform="translate(528.821397 457.04131) rotate(-90) scale(0.2 -0.2)">
     <defs>
      <path id="DejaVuSans-78" d="M 3513 3500 
L 2247 1797 
L 3578 0 
L 2900 0 
L 1881 1375 
L 863 0 
L 184 0 
L 1544 1831 
L 300 3500 
L 978 3500 
L 1906 2253 
L 2834 3500 
L 3513 3500 
z
" transform="scale(0.015625)"/>
      <path id="DejaVuSans-2d" d="M 313 2009 
L 1997 2009 
L 1997 1497 
L 313 1497 
L 313 2009 
z
" transform="scale(0.015625)"/>
     </defs>
     <use xlink:href="#DejaVuSans-4e"/>
     <use xlink:href="#DejaVuSans-65" x="74.804688"/>
     <use xlink:href="#DejaVuSans-78" x="134.578125"/>
     <use xlink:href="#DejaVuSans-74" x="193.757812"/>
     <use xlink:href="#DejaVuSans-2d" x="232.966797"/>
     <use xlink:href="#DejaVuSans-47" x="272.675781"/>
     <use xlink:href="#DejaVuSans-65" x="350.166016"/>
     <use xlink:href="#DejaVuSans-6e" x="411.689453"/>
     <use xlink:href="#DejaVuSans-20" x="475.068359"/>
     <use xlink:href="#DejaVuSans-52" x="506.855469"/>
     <use xlink:href="#DejaVuSans-43" x="571.337891"/>
    </g>
   </g>
   <g id="text_25">
    <!-- 46 -->
    <g transform="translate(513.758897 500.5449) scale(0.15 -0.15)">
     <use xlink:href="#DejaVuSans-34"/>
     <use xlink:href="#DejaVuSans-36" x="63.623047"/>
    </g>
   </g>
  </g>
 </g>
 <defs>
  <clipPath id="pd2036e857a">
   <rect x="71.171875" y="7.2" width="490.979303" height="522.254024"/>
  </clipPath>
 </defs>
</svg>
